<svg xmlns="http://www.w3.org/2000/svg"
shape-rendering="geometricPrecision"
width="4000" height="4000" viewBox="0 0 1024 1024">
  <metadata>null</metadata>

<path d="
M 351.729 352.224
C 353.614 351.464 355.889 351.302 357.894 350.993
C 361.664 350.411 365.429 349.789 369.199 349.207
C 383.51 346.997 397.857 345.279 412.257 343.784
C 464.044 338.405 516.478 338.387 568.366 342.196
C 586.012 343.491 603.55 345.654 621.024 348.411
C 625.872 349.176 630.704 350.045 635.539 350.89
C 637.88 351.299 640.988 351.448 643.104 352.542
C 643.02 355.692 643.252 358.881 643.202 362.045
C 643.181 363.384 643.451 364.915 642.985 366.187
C 638.985 371.524 633.38 376.055 628.825 380.951
C 620.888 389.482 613.321 398.363 606.075 407.484
C 594.652 421.862 584.577 437.201 573.76 452.022
C 561.303 469.091 547.806 485.47 534.604 501.968
C 525.99 512.734 517.368 523.875 509.957 535.509
C 508.086 538.446 506.134 541.34 504.361 544.336
C 504.062 544.841 503.167 547.301 502.689 547.303
C 497.541 538.156 493.431 528.606 486.112 520.875
C 470.732 504.63 447.962 499.923 426.552 504.459
C 418.057 506.259 410.513 509.623 402.45 512.61
C 402.832 513.385 404.868 513.629 405.724 513.94
C 408.981 515.125 412.19 516.426 415.362 517.824
C 425.866 522.454 435.549 528.547 444.551 535.649
C 464.425 551.327 481.371 571.828 492.399 594.652
C 495.773 601.635 498.312 608.843 500.998 616.093
C 501.689 615.177 501.876 613.842 502.218 612.744
C 502.823 610.803 503.722 608.909 504.456 607.01
C 507.069 600.241 509.994 593.575 513.098 587.017
C 522.432 567.297 533.005 548.26 544.63 529.803
C 564.628 498.051 588.582 468.219 614.125 440.766
C 620.899 433.486 627.983 426.554 635.097 419.617
C 637.844 416.937 641.12 414.521 643.664 411.681
C 644.483 416.675 643.732 422.434 643.743 427.505
C 643.767 438.338 643.766 449.172 643.77 460.005
C 643.778 481.552 644.624 503.093 641.064 524.423
C 633.988 566.811 611.738 605.671 582.748 636.911
C 567.529 653.313 550.737 668.886 532.451 681.834
C 526.163 686.286 519.933 690.865 513.376 694.924
C 508.525 697.927 503.459 700.851 498.929 704.312
C 494.013 702.06 489.489 698.212 484.917 695.321
C 473.99 688.411 463.77 680.643 453.438 672.912
C 440.807 663.46 429.199 652.554 418.248 641.228
C 386.125 608.006 362.853 567.632 354.613 521.875
C 350.829 500.868 351.843 479.251 351.83 458.004
C 351.809 422.768 352.545 387.449 351.729 352.224 Z"
opacity="1" fill="rgb(3,20,74)" fill-rule="evenodd" />
<path d="
M 581.914 455.959
C 582.633 455.172 582.699 454.355 583.214 453.472
C 584.181 451.814 585.494 450.258 586.603 448.689
C 589.96 443.933 593.408 439.227 596.688 434.414
C 604.23 423.345 613.024 412.804 621.734 402.64
C 665.765 351.26 723.117 307.935 790.835 294.986
C 810.313 291.261 829.371 289.286 849.215 290.253
C 854.386 290.505 859.543 291.154 864.622 292.129
C 866.209 292.434 868.259 292.071 869.671 292.993
C 865.984 293.012 862.353 292.374 858.674 292.299
C 851.453 292.152 844.179 292.483 837.009 293.362
C 795.735 298.423 755.955 314.888 721.568 338.069
C 709.489 346.211 697.705 354.881 686.807 364.562
C 683.546 367.459 680.497 370.712 677.486 373.867
C 675.855 375.575 674.211 377.806 672.224 379.104
C 670.902 379.968 669.14 380.128 667.695 380.746
C 665.361 381.745 663.169 383.146 661.061 384.552
C 648.795 392.737 637.991 402.131 626.918 411.797
C 620.013 417.823 613.135 423.971 606.568 430.374
C 600.843 435.956 595.371 441.749 589.774 447.45
C 587.994 449.264 586.273 451.067 584.656 453.032
C 583.979 453.856 583.311 454.672 582.581 455.451
C 582.553 455.48 581.994 456.243 581.914 455.959 Z"
opacity="1" fill="rgb(4,21,75)" fill-rule="evenodd" />

</svg>
